<?xml version="1.0" encoding="UTF-8"?> <svg xmlns="http://www.w3.org/2000/svg" width="147" height="26" viewBox="0 0 147 26" fill="none"><path d="M55.4639 4.19373C56.6547 4.13523 57.8384 4.23031 59.0146 4.47888C60.191 4.72751 61.2581 5.15168 62.208 5.73669L60.374 10.9945C59.4826 10.4972 58.6274 10.1318 57.8018 9.89783C56.9836 9.6639 56.1875 9.56099 55.4131 9.59021C54.8432 9.61215 54.3898 9.68515 54.0537 9.81677C53.7249 9.9484 53.4835 10.1169 53.3447 10.3217C53.2061 10.5263 53.1329 10.7456 53.1328 10.9867C53.1328 11.345 53.3085 11.6232 53.6592 11.8207C53.7148 11.8516 53.7767 11.8806 53.8428 11.9115L55.208 11.7914C55.5221 11.9449 55.9168 12.0694 56.377 12.1644C56.9542 12.2887 57.5905 12.42 58.292 12.559C58.9934 12.6979 59.6873 12.9032 60.3887 13.1664C61.0828 13.4296 61.7334 13.7804 62.3252 14.2338C62.917 14.6871 63.3915 15.2799 63.7568 16.0258C64.1221 16.7716 64.3052 17.7005 64.3271 18.8119C64.3271 20.1133 64.013 21.3123 63.3848 22.4017C62.7565 23.4912 61.821 24.3686 60.5938 25.0267C59.3662 25.6849 57.8315 26.0072 56.0049 26.0072C54.5363 26.0072 53.1261 25.8093 51.7744 25.4144C50.43 25.0195 49.3339 24.5077 48.4717 23.8861L50.3271 18.7894C51.1455 19.3452 52.0596 19.7909 53.0752 20.1273C54.098 20.4636 55.084 20.6248 56.0557 20.6176C56.6256 20.6102 57.0716 20.5588 57.4004 20.4711C57.7218 20.376 57.9628 20.2442 58.1162 20.0687C58.2622 19.8933 58.3428 19.6889 58.3428 19.4476C58.3428 19.0674 58.1603 18.7744 57.8096 18.5551C57.4516 18.3357 56.9834 18.1608 56.4062 18.0219C55.8292 17.883 55.1939 17.7291 54.5146 17.5756C53.8352 17.422 53.1555 17.2098 52.4688 16.9467C51.7892 16.6834 51.1603 16.3322 50.5977 15.8861C50.0351 15.4474 49.5817 14.8624 49.2383 14.1312C48.9995 13.6315 48.854 13.0529 48.7803 12.3812L47.4482 12.5004C47.4117 12.1933 47.3975 11.8713 47.3975 11.5277C47.3975 10.2482 47.6973 9.07126 48.2891 7.99646C48.8809 6.92151 49.7719 6.04322 50.9629 5.35583C52.1612 4.66848 53.6592 4.28149 55.4639 4.19373ZM12.9609 10.5697L9.59961 15.8041L10.9072 15.6888L7.72168 20.6615L14.6123 20.5736V25.5687L1.59863 25.5834V21.7513L5.09082 16.224L3.7832 16.3402L6.64062 11.8207L0.473633 12.0258V7.17712L12.9609 6.60681V10.5697ZM27.041 10.9867L19.6758 11.2357V13.5101L26.1348 13.3197V14.3412L27.4502 14.226V17.9633L20.9912 18.0804V20.6322L28.6484 20.5375V25.5541L16.0586 25.5687V15.2582L14.7441 15.3744V6.52576L27.041 5.97009V10.9867ZM45.4316 12.6527L46.7471 12.5375V25.5394L42.1143 25.5463L35.9111 16.4271V25.5541H30.6865V13.9701L29.3643 14.0873V5.86072L33.7705 5.66345L38.9863 13.2172L39.9521 13.1322V5.3783L45.4316 5.12927V12.6527ZM80.585 9.3197L74.9219 9.51013V10.057L76.2441 9.9408V25.5101L69.8799 25.517V10.5267L68.5576 10.6429V9.71423L63.165 9.89783V4.31775L80.585 3.52771V9.3197ZM96.7129 8.14294L98.0547 8.02576L105.12 25.4808L97.7627 25.4877L96.3672 21.5248L88.6143 21.5902L87.2705 25.4955L80.5117 25.5023L86.8555 9.03552L85.5381 9.15173L87.833 3.19861L94.5986 2.89197L96.7129 8.14294ZM123.073 5.82263L124.389 5.7074V7.55701L113.647 7.91541V11.9525L123.044 11.7035V17.7953L113.647 17.9408V25.473L106.29 25.4808V7.32263L104.967 7.43982V2.41638L123.073 1.59021V5.82263ZM145.14 3.88513L146.462 3.76892V6.80408L134.822 7.19861V11.3969L145.001 11.1263V17.4662L134.83 17.6195V25.4515L126.873 25.4584V5.51697L125.55 5.63416V1.48083L145.14 0.588257V3.88513ZM90.4922 16.1127L94.4385 16.0404L92.458 10.3871L90.4922 16.1127ZM40.3408 13.1234L41.2676 14.475V13.0424L40.3408 13.1234Z" fill="#201E1F"></path></svg> 